<?xml version="1.0" encoding="utf-8"?>
<!-- Generator: Adobe Illustrator 27.0.0, SVG Export Plug-In . SVG Version: 6.00 Build 0)  -->
<svg version="1.1" id="Calque_1" xmlns="http://www.w3.org/2000/svg" xmlns:xlink="http://www.w3.org/1999/xlink" x="0px" y="0px"
	 viewBox="0 0 1009 92" style="enable-background:new 0 0 1009 92;" xml:space="preserve">
<style type="text/css">
	.st0{display:none;}
	.st1{clip-path:url(#SVGID_00000180355513742064669130000002294258699414896058_);}
	.st2{fill:none;stroke:#FFFFFF;stroke-miterlimit:10;}
</style>
<rect x="-22" y="-59" class="st0" width="1089" height="197"/>
<g>
	<defs>
		<rect id="SVGID_1_" y="0.5" width="1009" height="90.6"/>
	</defs>
	<clipPath id="SVGID_00000004513831083703716920000007831348134546528676_">
		<use xlink:href="#SVGID_1_"  style="overflow:visible;"/>
	</clipPath>
	<g style="clip-path:url(#SVGID_00000004513831083703716920000007831348134546528676_);">
		<path class="st2" d="M93.5,0.8c274,0,547.9,0,821.9,0c29.2,22.7,60.6,43.8,92.5,65.7C672.3,66.3,336.7,66.3,1,66.5
			C33,44.6,64.4,23.5,93.5,0.8z"/>
		<path class="st2" d="M8.1,61.5c330.5-0.8,662.3-0.8,992.9,0"/>
		<path class="st2" d="M14.9,56.6C178.5,57.8,340.8,69,504.5,69c163.7,0,326-11.2,489.6-12.4"/>
		<path class="st2" d="M21.5,52.1c161.7,3.9,320.9,23.2,483,23.2s321.3-19.3,483-23.2"/>
		<path class="st2" d="M27.9,47.8c159.4,7,316,34.3,476.6,34.3s317.1-27.3,476.6-34.3"/>
		<path class="st2" d="M34.1,43.9c157.1,10,311.1,43.5,470.4,43.5s313.2-33.5,470.4-43.5"/>
		<path class="st2" d="M40.2,39.9C195.1,52,346.5,90.3,504.5,90.3c158,0,309.4-38.3,464.3-50.4"/>
		<path class="st2" d="M46.2,35.8c153.2,13.1,301.2,53.7,458.3,53.7s305.1-40.6,458.3-53.7"/>
		<path class="st2" d="M52,32.2c150.4,13.4,298.1,51.7,452.5,51.7c154.4,0,302.1-38.3,452.5-51.7"/>
		<path class="st2" d="M57.6,28.5c148.1,12.5,295.3,46,446.9,46s298.8-33.5,446.9-46"/>
		<path class="st2" d="M63.2,24.5c146.1,10.9,292.5,38.7,441.3,38.7s295.2-27.8,441.3-38.7"/>
		<path class="st2" d="M68.5,20.3c144.9,8.6,289.3,29.9,436,29.9s291.1-21.3,436-29.9"/>
		<path class="st2" d="M73.8,16C217.4,22.2,360,37.1,504.5,37.1c144.5,0,287.2-14.9,430.8-21.1"/>
		<path class="st2" d="M78.9,11.7c142,3.9,283.2,13.2,425.6,13.2s283.6-9.2,425.6-13.2"/>
		<path class="st2" d="M83.9,7.7c282.3,4,558.9,4,841.2,0"/>
		<path class="st2" d="M88.8,4c277.4,1.3,554,1.3,831.5,0"/>
		<path class="st2" d="M864.1,0.8C888,25.6,910.2,45,945,66.4"/>
		<path class="st2" d="M812.7,0.8c16.3,23.5,28.7,48.6,69.4,65.7"/>
		<path class="st2" d="M761.4,0.8c9.6,19.9,13,54,57.8,65.6"/>
		<path class="st2" d="M710,0.8c1.3,4,3.3,67.8,46.2,65.7"/>
		<path class="st2" d="M658.6,0.9c-0.5,25.3,7,49.9,22.6,73.7c4-2.7,8.1-5.4,12.1-8.1"/>
		<path class="st2" d="M607.2,0.9c-1,27,4,53.6,15.1,79.9c2.7-4.7,5.4-9.5,8.1-14.2"/>
		<path class="st2" d="M555.9,0.9c-0.7,28.2,1.8,56.3,7.5,84.3c1.3-6.2,2.7-12.4,4-18.6"/>
		<path class="st2" d="M504.5,0.8v65.7"/>
		<path class="st2" d="M453.1,0.9c0.7,28.2-1.8,56.3-7.5,84.3c-1.3-6.2-2.7-12.4-4-18.6"/>
		<path class="st2" d="M401.8,0.9c1,27-4,53.6-15.1,79.9l-8.1-14.2"/>
		<path class="st2" d="M350.4,0.9c0.5,25.3-7,49.9-22.6,73.7c-4-2.7-8.1-5.4-12.1-8.1"/>
		<path class="st2" d="M299,0.8c-1.3,4-3.3,67.8-46.2,65.7"/>
		<path class="st2" d="M247.6,0.8c-9.6,19.9-13,54-57.8,65.6"/>
		<path class="st2" d="M196.3,0.8c-16.3,23.5-28.7,48.6-69.4,65.7"/>
		<path class="st2" d="M144.9,0.8C121,25.6,98.8,45,64,66.4"/>
	</g>
</g>
</svg>
