<?xml version="1.0" encoding="utf-8"?>
<!-- Generator: Adobe Illustrator 27.0.0, SVG Export Plug-In . SVG Version: 6.00 Build 0)  -->
<svg version="1.1" id="Calque_2_00000055690993180562505240000013674847900645896639_"
	 xmlns="http://www.w3.org/2000/svg" xmlns:xlink="http://www.w3.org/1999/xlink" x="0px" y="0px" viewBox="0 0 164 164"
	 style="enable-background:new 0 0 164 164;" xml:space="preserve">
<style type="text/css">
	.st0{fill:#FFFFFF;stroke:#FFFFFF;stroke-miterlimit:10;}
</style>
<path class="st0" d="M149.4,104.8c1.8-5.3,3-11,3.5-16.7l-11.5-5.6c0-1.9,0-3.8-0.2-5.7c0-0.7-0.1-1.3-0.2-1.9l10.9-6.9
	c-1.1-5.7-2.9-11.1-5.3-16.2l-12.8,0.9c-1.2-2.2-2.6-4.4-4.2-6.4l6-11.3c-3.8-4.3-8-8.1-12.7-11.4l-10.6,7.2
	c-2.2-1.3-4.4-2.4-6.8-3.5l-0.5-12.8c-5.3-1.8-11-3-16.7-3.5l-5.6,11.5c-1.9,0-3.7,0.1-5.6,0.2c-0.7,0.1-1.3,0.1-2,0.2l-6.9-10.9
	c-5.7,1.1-11.1,2.9-16.2,5.3l0.9,12.8c-2.2,1.3-4.4,2.7-6.4,4.2l-11.4-6c-4.3,3.8-8.1,8.1-11.4,12.7l7.2,10.6
	c-1.3,2.2-2.4,4.4-3.5,6.8l-12.8,0.5c-1.8,5.3-3,10.9-3.5,16.7l11.6,5.6c0,1.9,0.1,3.8,0.2,5.7c0.1,0.7,0.1,1.3,0.2,1.9L12.2,96
	c1.1,5.7,2.9,11.1,5.3,16.2l12.8-0.9c1.3,2.2,2.6,4.4,4.2,6.4l-6,11.4c3.8,4.3,8.1,8.1,12.7,11.4l10.6-7.2c2.2,1.3,4.4,2.4,6.8,3.4
	l0.5,12.8c5.3,1.8,10.9,3,16.7,3.5l5.6-11.6c1.9,0,3.8-0.1,5.6-0.2c0.6-0.1,1.3-0.1,1.9-0.2l6.9,10.9c5.7-1.1,11.1-2.9,16.2-5.3
	l-0.9-12.8c2.2-1.3,4.3-2.6,6.4-4.2l11.4,6c4.3-3.8,8.1-8.1,11.4-12.7l-7.2-10.6c1.3-2.2,2.4-4.4,3.5-6.8L149.4,104.8L149.4,104.8z
	 M82,123.9c-23.1,0-41.9-18.8-41.9-41.9S58.9,40.1,82,40.1s41.9,18.8,41.9,41.9S105.1,123.9,82,123.9z"/>
</svg>
