<?xml version="1.0" encoding="UTF-8"?>
<svg id="Calque_2" data-name="Calque 2" xmlns="http://www.w3.org/2000/svg" viewBox="0 0 387.42 258.02">
  <defs>
    <style>
      .cls-1 {
        fill: #fff;
        stroke: #fff;
        stroke-miterlimit: 10;
      }
    </style>
  </defs>
  <path class="cls-1" d="M173.98,243.5l-23.17-23.17H35.7c-12.84,0-23.25-10.41-23.25-23.25V36.62c0-12.84,10.41-23.25,23.25-23.25H350.27c12.84,0,23.25,10.41,23.25,23.25V197.08c0,12.84-10.41,23.25-23.25,23.25h-110.6l-23.17,23.17,5.55,13.6,22.98-23.74h105.89c19.88,0,36-16.12,36-36V36.5c0-19.88-16.12-36-36-36H36.5C16.61,.5,.5,16.62,.5,36.5V197.35c0,19.88,16.11,36,36,36h109.14l23.87,23.74,4.47-13.6Z"/>
  <path class="cls-1" d="M176.99,140.22c1.82-5.34,3-10.96,3.48-16.74l-11.54-5.59c.01-1.87-.05-3.76-.22-5.65-.05-.65-.13-1.3-.21-1.95l10.86-6.86c-1.13-5.7-2.92-11.14-5.31-16.23l-12.82,.93c-1.25-2.22-2.65-4.36-4.17-6.38l5.97-11.35c-3.77-4.29-8.05-8.11-12.73-11.4l-10.63,7.21c-2.18-1.28-4.44-2.44-6.79-3.45l-.5-12.81c-5.34-1.82-10.96-3-16.73-3.5l-5.59,11.55c-1.87-.02-3.74,.06-5.65,.22-.66,.06-1.3,.14-1.95,.22l-6.85-10.87c-5.71,1.14-11.15,2.94-16.25,5.32l.93,12.82c-2.22,1.26-4.36,2.65-6.37,4.17l-11.36-5.97c-4.3,3.78-8.12,8.06-11.39,12.74l7.21,10.63c-1.29,2.18-2.45,4.44-3.46,6.78l-12.82,.5c-1.81,5.34-2.99,10.95-3.48,16.74l11.55,5.59c-.01,1.87,.05,3.75,.21,5.65,.06,.65,.14,1.29,.23,1.95l-10.87,6.86c1.14,5.7,2.93,11.14,5.32,16.23l12.82-.93c1.26,2.22,2.65,4.35,4.17,6.37l-5.97,11.35c3.77,4.3,8.06,8.13,12.74,11.4l10.63-7.21c2.18,1.3,4.45,2.45,6.79,3.45l.5,12.82c5.34,1.81,10.94,3,16.72,3.49l5.61-11.55c1.86,.01,3.75-.05,5.65-.22,.65-.05,1.3-.14,1.94-.22l6.86,10.88c5.71-1.14,11.15-2.93,16.25-5.31l-.93-12.83c2.21-1.26,4.34-2.65,6.37-4.17l11.35,5.97c4.29-3.78,8.11-8.05,11.39-12.74l-7.2-10.63c1.28-2.18,2.43-4.45,3.45-6.79l12.81-.5Zm-67.44,19.03c-23.08,0-41.86-18.78-41.86-41.86s18.77-41.86,41.86-41.86,41.85,18.78,41.85,41.86-18.78,41.86-41.85,41.86Z"/>
  <path class="cls-1" d="M346.27,137.15c1.82-5.34,3-10.96,3.48-16.74l-11.54-5.59c.01-1.87-.05-3.76-.22-5.65-.05-.65-.13-1.3-.21-1.95l10.86-6.86c-1.13-5.7-2.92-11.14-5.31-16.23l-12.82,.93c-1.25-2.22-2.65-4.36-4.17-6.38l5.97-11.35c-3.77-4.29-8.05-8.11-12.73-11.4l-10.63,7.21c-2.18-1.28-4.44-2.44-6.79-3.45l-.5-12.81c-5.34-1.82-10.96-3-16.73-3.5l-5.59,11.55c-1.87-.02-3.74,.06-5.65,.22-.66,.06-1.3,.14-1.95,.22l-6.85-10.87c-5.71,1.14-11.15,2.94-16.25,5.32l.93,12.82c-2.22,1.26-4.36,2.65-6.37,4.17l-11.36-5.97c-4.3,3.78-8.12,8.06-11.39,12.74l7.21,10.63c-1.29,2.18-2.45,4.44-3.46,6.78l-12.82,.5c-1.81,5.34-2.99,10.95-3.48,16.74l11.55,5.59c-.01,1.87,.05,3.75,.21,5.65,.06,.65,.14,1.29,.23,1.95l-10.87,6.86c1.14,5.7,2.93,11.14,5.32,16.23l12.82-.93c1.26,2.22,2.65,4.35,4.17,6.37l-5.97,11.35c3.77,4.3,8.06,8.13,12.74,11.4l10.63-7.21c2.18,1.3,4.45,2.45,6.79,3.45l.5,12.82c5.34,1.81,10.94,3,16.72,3.49l5.61-11.55c1.86,.01,3.75-.05,5.65-.22,.65-.05,1.3-.14,1.94-.22l6.86,10.88c5.71-1.14,11.15-2.93,16.25-5.31l-.93-12.83c2.21-1.26,4.34-2.65,6.37-4.17l11.35,5.97c4.29-3.78,8.11-8.05,11.39-12.74l-7.2-10.63c1.28-2.18,2.43-4.45,3.45-6.79l12.81-.5Zm-67.44,19.03c-23.08,0-41.86-18.78-41.86-41.86s18.77-41.86,41.86-41.86,41.85,18.78,41.85,41.86-18.78,41.86-41.85,41.86Z"/>
</svg>