<?xml version="1.0" encoding="UTF-8"?>
<svg id="Calque_2" data-name="Calque 2" xmlns="http://www.w3.org/2000/svg" viewBox="0 0 387.42 258.02">
  <path d="M173.98,243.5l-23.17-23.17H35.7c-12.84,0-23.25-10.41-23.25-23.25V36.62c0-12.84,10.41-23.25,23.25-23.25H350.27c12.84,0,23.25,10.41,23.25,23.25V197.08c0,12.84-10.41,23.25-23.25,23.25h-110.6l-23.17,23.17,5.55,13.6,22.98-23.74h105.89c19.88,0,36-16.12,36-36V36.5c0-19.88-16.12-36-36-36H36.5C16.61,.5,.5,16.62,.5,36.5V197.35c0,19.88,16.11,36,36,36h109.14l23.87,23.74,4.47-13.6h0Z" style="fill: #fff; stroke: #fff; stroke-miterlimit: 10;"/>
</svg>