<?xml version="1.0" encoding="UTF-8"?>
<svg id="Layer_15" data-name="Layer 15" xmlns="http://www.w3.org/2000/svg" viewBox="0 0 65.95 57.87">
  <path d="M62.21,42.32v.06c-.18,.05-.38,.1-.58,.16l.58-.22Z"/>
  <path d="M50.79,6.14c-.41-.06-.83-.11-1.24-.15v.12l1.25,.31v-.28Z"/>
  <path d="M65.09,9.15c-4.73-1.41-9.53-2.38-14.3-3.01l-.17-3.7-12.04-.05V0h-8.69V2.36l-16.62-.07,.14,4.53c-.54,.08-1.07,.16-1.59,.24C5.14,8.12,1.03,9.21,.86,9.26l-.74,.2-.12,34.12,.75,.2c1.37,.36,2.75,.7,4.13,1.02l-.04,3.38-.1,9.69h1.22l3.27-8.63,1.24-3.28h.01c7.42,1.35,14.93,2.03,22.48,2.03,4.21,0,8.43-.21,12.65-.64,4.52-.44,8.38-1.08,11.46-1.7l1.23,2.98,3.3,8.01h1.37l-.46-8.68-.19-3.53c1.83-.48,2.85-.83,2.96-.87l.67-.23V9.15h-.86ZM14.65,3.66H49.55v2.33c-12.78-1.55-25.2-.71-34.92,.65l.02-2.98ZM63.95,41.89c-.41,.12-.99,.29-1.74,.49-.18,.05-.38,.1-.58,.16h-.01c-3.21,.84-8.86,2.09-16.2,2.82-14.42,1.45-29.41,.3-43.41-3.32l.1-31.03c1.48-.36,5.06-1.19,10.02-1.97,11.01-1.75,32.26-3.79,51.82,1.86v30.99Z" style="fill: #fff;"/>
  <path d="M50.8,6.42l-1.25-.31v-.12c.41,.04,.83,.09,1.24,.15v.28Z"/>
</svg>