<?xml version="1.0" encoding="UTF-8"?>
<svg id="Calque_2" data-name="Calque 2" xmlns="http://www.w3.org/2000/svg" viewBox="0 0 63.98 113.7">
  <path d="M4.53,113.7l-4.53-.15,2.27-30.82,2.44,4.92s1.87,3.66,5.44,5.48l.68,.35,.12,.76c.07,.47,.13,.81-6.05,18.43l-.36,1.04Zm.03-21.17l-1.12,15.19c1.68-4.84,3.57-10.32,4.27-12.54-1.26-.8-2.31-1.74-3.15-2.65Z" style="fill: #fff;"/>
  <g>
    <path d="M44.01,99.12H16.39l-.19-.05c-.15-.04-3.8-1.02-7.53-3.33-2.88-1.79-5.02-3.89-6.37-6.24-.81-1.41-1.33-2.91-1.55-4.47l-.02-.21V7.97l.81-.42c.33-.17,33.22-16.86,60.69-.09,.94,.31,.94,1.47,.95,2.27v11.01s0,64.3,0,64.3l-.08,.23c-.05,.14-4.73,13.83-19.09,13.83Zm-27.22-3h27.22c11.39,0,15.55-9.92,16.17-11.56,0-4.57,.01-66.9,0-74.82-23.57-13.99-51.38-2.26-56.45,.1V84.7c.18,1.14,.57,2.25,1.17,3.3,1.1,1.92,2.9,3.66,5.35,5.18,2.89,1.8,5.8,2.72,6.54,2.93Z" style="fill: #fff;"/>
    <path d="M63.98,112.83h-4.75l-7.04-18.65,.89-.68c3.42-2.61,7.11-6.46,7.11-8.12v-1.5s1.5,0,1.5,0c.77,0,1.19,0,1.44,1.5h.06c0,.1,0,.21-.01,.31,.25,1.81,.33,5.42,.51,12.63,.16,6.49,.27,12.98,.27,12.98l.03,1.53Zm-8.2-17.64l5.13,13.59c-.12-5.92-.28-13.25-.43-18.06-1.59,1.85-3.51,3.5-4.69,4.47Z" style="fill: #fff;"/>
  </g>
</svg>