<?xml version="1.0" encoding="UTF-8"?>
<svg id="Calque_1" data-name="Calque 1" xmlns="http://www.w3.org/2000/svg" viewBox="0 0 318.52 174.13">
  <path d="M0,32.04v110.06c0,17.67,20.36,32.04,45.37,32.04h227.78c25.02,0,45.37-14.37,45.37-32.04V32.04c0-17.67-20.36-32.04-45.37-32.04H45.37C20.36,0,0,14.37,0,32.04ZM273.14,10.6c16.74,0,30.36,9.61,30.36,21.43v110.06c0,11.82-13.62,21.43-30.36,21.43H45.37c-16.73,0-30.35-9.61-30.35-21.43V32.04c0-11.82,13.62-21.43,30.35-21.43h227.78Z" style="fill: #fff;"/>
</svg>