<?xml version="1.0" encoding="utf-8"?>
<!-- Generator: Adobe Illustrator 27.0.0, SVG Export Plug-In . SVG Version: 6.00 Build 0)  -->
<svg version="1.1" id="Calque_1" xmlns="http://www.w3.org/2000/svg" xmlns:xlink="http://www.w3.org/1999/xlink" x="0px" y="0px"
	 viewBox="0 0 318.5 174.1" style="enable-background:new 0 0 318.5 174.1;" xml:space="preserve">
<style type="text/css">
	.st0{fill:#479944;}
	.st1{fill:#FFFFFF;}
</style>
<rect x="15" y="10.6" class="st0" width="291.8" height="152.9"/>
<path class="st1" d="M0,32v110.1c0,17.7,20.4,32,45.4,32h227.8c25,0,45.4-14.4,45.4-32V32c0-17.7-20.4-32-45.4-32H45.4
	C20.4,0,0,14.4,0,32z M273.1,10.6c16.7,0,30.4,9.6,30.4,21.4v110.1c0,11.8-13.6,21.4-30.4,21.4H45.4c-16.7,0-30.4-9.6-30.4-21.4V32
	c0-11.8,13.6-21.4,30.4-21.4L273.1,10.6L273.1,10.6z"/>
</svg>
